<svg xmlns="http://www.w3.org/2000/svg" viewBox="0 0 1619 165"><g fill="none" fill-rule="evenodd" transform="translate(3 4)"><g transform="translate(0 64)"><path fill="#445561" d="M762.63.8h7.2v2.53h-1.93L761.56 23h-4.48l-6.02-19.35L745.5 23h-4.44l-6.48-19.67h-1.96V.79h7.2v2.54h-1.93l5.38 17.06L748.95.8h4.38l6.03 19.6 5.48-17.06h-2.2V.79zm11.4 14.96a6.75 6.75 0 0 0 .36 2.2c.37.98.94 1.71 1.74 2.2.8.5 1.7.75 2.7.75.8 0 1.56-.11 2.31-.33.75-.22 1.53-.57 2.35-1.04l1.1 1.86c-1 .69-2 1.2-3 1.53-1 .33-2.05.5-3.14.5a7.76 7.76 0 0 1-2.85-.52 6.07 6.07 0 0 1-2.25-1.52 7.11 7.11 0 0 1-1.48-2.52c-.36-1-.54-2.18-.54-3.52 0-1.08.15-2.1.46-3.07.3-.96.75-1.8 1.35-2.51a6.48 6.48 0 0 1 2.24-1.71 7.2 7.2 0 0 1 3.1-.63c1.14 0 2.1.17 2.86.52.77.35 1.4.8 1.88 1.38.48.57.85 1.22 1.1 1.95a11.48 11.48 0 0 1 .61 3.37l.03 1.11h-10.93zm4.26-6.05c-.63 0-1.19.1-1.66.27a3.34 3.34 0 0 0-2 2.02c-.2.49-.36 1.03-.46 1.64h7.87a7.28 7.28 0 0 0-.27-1.57c-.14-.48-.36-.9-.65-1.24-.3-.35-.67-.63-1.13-.82-.46-.2-1.03-.3-1.7-.3zm10.25-9.5h4.93v20.27h2.28V23h-7.2v-2.52h2.2V2.73h-2.2V.2zm20.83 11.66a3.98 3.98 0 0 0-3.75-2.13 4.12 4.12 0 0 0-3.24 1.53 5.43 5.43 0 0 0-.98 1.78c-.24.7-.36 1.47-.36 2.33 0 .85.12 1.62.36 2.3.24.69.57 1.27.99 1.75a4.14 4.14 0 0 0 3.24 1.5c.93 0 1.75-.22 2.44-.68a4.68 4.68 0 0 0 1.66-2l2.25 1.12a7.32 7.32 0 0 1-2.54 2.96 6.76 6.76 0 0 1-3.84 1.1c-1.06 0-2.03-.2-2.93-.6-.9-.4-1.66-.95-2.31-1.66a7.64 7.64 0 0 1-1.52-2.55 9.34 9.34 0 0 1-.54-3.24c0-1.17.2-2.25.57-3.23a7.24 7.24 0 0 1 3.9-4.2 7.44 7.44 0 0 1 5.57-.1c.86.32 1.6.82 2.25 1.5h1.54v2.52h-2.76zm5.22 3.54c0-1.2.2-2.3.58-3.28.37-.99.9-1.83 1.57-2.54a6.88 6.88 0 0 1 2.4-1.63 7.99 7.99 0 0 1 3.07-.58c1.12 0 2.15.2 3.08.58a6.82 6.82 0 0 1 3.95 4.14c.37.99.55 2.08.55 3.28 0 1.18-.18 2.27-.55 3.26-.37 1-.9 1.85-1.55 2.56a6.92 6.92 0 0 1-2.4 1.66c-.93.4-1.96.6-3.08.6-1.15 0-2.18-.2-3.1-.6a6.9 6.9 0 0 1-2.4-1.64 7.55 7.55 0 0 1-1.55-2.54 9.43 9.43 0 0 1-.57-3.27zm2.89 0c0 .87.12 1.66.37 2.36s.59 1.3 1.02 1.8c.44.49.94.87 1.51 1.14a4.5 4.5 0 0 0 5.22-1.13c.43-.5.77-1.1 1.02-1.8.24-.7.36-1.49.36-2.37 0-.92-.12-1.73-.36-2.44a5.18 5.18 0 0 0-1-1.8 4.12 4.12 0 0 0-1.52-1.08 4.86 4.86 0 0 0-3.72 0 4.3 4.3 0 0 0-1.5 1.09 5.14 5.14 0 0 0-1.03 1.79 7.4 7.4 0 0 0-.37 2.44zm15.26-7.59h4.83V9.6h.03c.33-.29.68-.55 1.05-.8a8.1 8.1 0 0 1 2.4-1.1c.44-.1.89-.15 1.36-.15 1.09 0 2.03.2 2.82.6.8.4 1.4 1.04 1.83 1.9.38-.33.77-.65 1.18-.96a8.6 8.6 0 0 1 2.68-1.34 6.79 6.79 0 0 1 3.74.13 4.3 4.3 0 0 1 1.66 1.03c.46.46.81 1.05 1.05 1.76.24.72.36 1.57.36 2.54v7.27h2.1V23h-7.08v-2.52h2.14v-6.93c0-1.16-.3-2.04-.88-2.64-.59-.6-1.43-.9-2.54-.9a4.8 4.8 0 0 0-2 .47c-.69.3-1.27.7-1.76 1.18v8.82h2.1V23h-7.08v-2.52h2.14v-6.93c0-1.16-.3-2.04-.89-2.64-.59-.6-1.44-.9-2.54-.9-.63 0-1.27.15-1.92.45-.64.3-1.25.68-1.83 1.13v8.89h2.14V23h-7.1v-2.52h2.12V10.34h-2.11V7.82zm32.6 7.94a6.75 6.75 0 0 0 .37 2.2c.36.98.94 1.71 1.74 2.2.8.5 1.7.75 2.7.75.8 0 1.56-.11 2.3-.33.76-.22 1.54-.57 2.36-1.04l1.1 1.86c-1 .69-2 1.2-3 1.53-1.01.33-2.06.5-3.14.5a7.76 7.76 0 0 1-2.85-.52 6.07 6.07 0 0 1-2.25-1.52 7.11 7.11 0 0 1-1.48-2.52c-.36-1-.54-2.18-.54-3.52 0-1.08.15-2.1.45-3.07.3-.96.76-1.8 1.36-2.51a6.48 6.48 0 0 1 2.23-1.71 7.2 7.2 0 0 1 3.1-.63c1.15 0 2.1.17 2.87.52s1.4.8 1.88 1.38c.48.57.85 1.22 1.1 1.95a11.48 11.48 0 0 1 .61 3.37c.02.38.02.75.02 1.11h-10.92zm4.27-6.05c-.64 0-1.19.1-1.66.27a3.34 3.34 0 0 0-2.01 2.02c-.2.49-.35 1.03-.45 1.64h7.87a7.28 7.28 0 0 0-.27-1.57c-.14-.48-.36-.9-.65-1.24-.3-.35-.67-.63-1.13-.82-.46-.2-1.03-.3-1.7-.3zm-72.8 33.11h3.56v2.22h-3.6l-.04 8.76c0 .6.07 1.07.2 1.45.14.37.36.62.67.77.3.14.64.2 1.02.2a4.78 4.78 0 0 0 2.11-.48l.63 1.84a6.99 6.99 0 0 1-5.05.55c-.49-.17-.9-.44-1.24-.82-.34-.38-.59-.89-.75-1.53a9.72 9.72 0 0 1-.25-2.4l.04-8.34h-2.42v-2.22h2.45V39.2l2.67-1.26v4.9zm6.56 7.6c0-1.2.2-2.3.58-3.29.37-.99.9-1.83 1.57-2.54a6.88 6.88 0 0 1 2.4-1.63 7.99 7.99 0 0 1 3.07-.58c1.12 0 2.15.2 3.08.58a6.82 6.82 0 0 1 3.95 4.14c.37.99.55 2.08.55 3.28 0 1.18-.18 2.27-.55 3.26-.37 1-.9 1.85-1.56 2.56a6.92 6.92 0 0 1-2.4 1.66c-.92.4-1.95.6-3.07.6-1.15 0-2.18-.2-3.11-.6a6.9 6.9 0 0 1-2.39-1.64 7.55 7.55 0 0 1-1.55-2.54 9.43 9.43 0 0 1-.57-3.27zm2.88 0c0 .86.13 1.65.38 2.35.25.7.59 1.3 1.02 1.8.44.49.94.87 1.51 1.14a4.5 4.5 0 0 0 5.22-1.13c.43-.5.77-1.1 1.02-1.8.24-.7.36-1.49.36-2.37 0-.92-.12-1.73-.36-2.44a5.18 5.18 0 0 0-1-1.8 4.12 4.12 0 0 0-1.52-1.08 4.86 4.86 0 0 0-3.72 0 4.3 4.3 0 0 0-1.5 1.09 5.14 5.14 0 0 0-1.03 1.79 7.4 7.4 0 0 0-.38 2.44zm-79.8 20.37h7.21v2.54h-2.22v17.15h7.66c.15 0 .31-.04.47-.1.15-.08.3-.18.42-.3.13-.11.23-.25.31-.4a1 1 0 0 0 .12-.46v-2.8h2.78V93h-16.74v-2.52h2.1V73.33h-2.1v-2.54zm27.28 20.8c-.57.54-1.21.98-1.9 1.32-.7.34-1.5.51-2.39.51-.74 0-1.42-.11-2.04-.35a5 5 0 0 1-1.6-.96c-.46-.4-.8-.87-1.05-1.41a4.78 4.78 0 0 1-.09-3.43 4.3 4.3 0 0 1 1.87-2.22 6.8 6.8 0 0 1 2.76-.92c.48-.06.94-.1 1.38-.1.7 0 1.3.03 1.77.07.48.05.92.1 1.3.18l.02-1.24c0-.54-.08-1-.23-1.4a2.6 2.6 0 0 0-1.68-1.56c-.4-.13-.84-.19-1.33-.19a8.82 8.82 0 0 0-4.29 1.11l-.9-1.89a9.72 9.72 0 0 1 2.55-1.16c.47-.14.96-.26 1.45-.34a8.77 8.77 0 0 1 3.83.2 4.31 4.31 0 0 1 2.92 2.65c.26.67.4 1.49.4 2.43l-.02 7.59h1.68V93h-4.4v-1.4zm-3.69-.45a5.42 5.42 0 0 0 3.7-1.64v-3.43h-3.16c-.52 0-1 .06-1.44.18-.43.11-.81.29-1.13.51-.32.22-.56.5-.74.83a2.4 2.4 0 0 0-.26 1.15c0 .4.07.75.22 1.04.15.3.35.55.62.75.27.2.59.35.96.46.37.1.78.15 1.23.15zm19.65-10.3a2.27 2.27 0 0 0-.74-.7c-.3-.17-.64-.3-1-.39a4.96 4.96 0 0 0-2.17 0c-.33.1-.6.22-.84.39a1.63 1.63 0 0 0-.75 1.4c0 .51.16.92.46 1.21.31.3.83.58 1.55.83l2.91 1.03c1.25.42 2.17.99 2.74 1.71.58.72.87 1.59.87 2.6a4.07 4.07 0 0 1-1.55 3.29c-.5.39-1.09.7-1.78.91-.7.22-1.46.33-2.31.33a6.32 6.32 0 0 1-2.89-.57 4.32 4.32 0 0 1-1.71-1.5h-1.53v-2.53H764a2.04 2.04 0 0 0 .99 1.8c.3.2.63.33 1 .42a5.03 5.03 0 0 0 2.25-.01c.36-.1.67-.23.93-.41.27-.18.49-.4.64-.65.16-.26.24-.54.24-.87 0-.49-.16-.9-.48-1.24a4.11 4.11 0 0 0-1.62-.93l-2.9-1.08a6.2 6.2 0 0 1-2.63-1.6 3.56 3.56 0 0 1-.86-2.44c0-.65.12-1.24.36-1.79s.59-1.02 1.04-1.41c.46-.4 1.01-.7 1.67-.93.65-.23 1.4-.34 2.24-.34 1.08 0 1.99.15 2.72.45.73.3 1.4.82 1.98 1.56h1.42v2.52h-3c0-.41-.1-.76-.29-1.05zm13.27-10.05h8.98c1 0 1.9.13 2.74.4a6.3 6.3 0 0 1 2.17 1.13 5.1 5.1 0 0 1 1.42 1.89 6.28 6.28 0 0 1 0 4.88c-.32.72-.8 1.35-1.4 1.88-.6.54-1.33.97-2.17 1.28-.85.31-1.79.47-2.82.47h-3.94v7.76h2.22V93h-7.2v-2.52h2.1V73.33h-2.1v-2.54zm4.98 2.54v6.98h4c.55 0 1.06-.07 1.53-.22.46-.15.86-.38 1.2-.67.33-.3.6-.66.79-1.1.19-.44.28-.94.28-1.52a3.3 3.3 0 0 0-1-2.56c-.66-.6-1.72-.91-3.17-.91h-3.63zm21.94 18.26c-.58.54-1.21.98-1.91 1.32-.7.34-1.5.51-2.38.51-.74 0-1.43-.11-2.05-.35a5 5 0 0 1-1.6-.96c-.45-.4-.8-.87-1.05-1.41a4.78 4.78 0 0 1-.09-3.43 4.3 4.3 0 0 1 1.88-2.22 6.8 6.8 0 0 1 2.75-.92c.49-.06.95-.1 1.39-.1.7 0 1.3.03 1.77.07.48.05.91.1 1.3.18l.02-1.24c0-.54-.08-1-.24-1.4a2.6 2.6 0 0 0-1.67-1.56c-.4-.13-.84-.19-1.33-.19a8.82 8.82 0 0 0-4.29 1.11l-.9-1.89a9.72 9.72 0 0 1 2.55-1.16c.47-.14.95-.26 1.45-.34a8.77 8.77 0 0 1 3.83.2 4.31 4.31 0 0 1 2.92 2.65c.26.67.39 1.49.39 2.43l-.02 7.59h1.69V93h-4.41v-1.4zm-3.7-.45a5.42 5.42 0 0 0 3.7-1.64l.01-3.43h-3.16c-.53 0-1 .06-1.44.18-.44.11-.81.29-1.13.51-.32.22-.56.5-.74.83a2.4 2.4 0 0 0-.26 1.15c0 .4.07.75.22 1.04.14.3.35.55.62.75.27.2.59.35.96.46.37.1.78.15 1.23.15zm11.07-20.93h4.92v20.27h2.29V93h-7.21v-2.52h2.2V72.73h-2.2V70.2zm9.87 7.61h4.84v1.78h.02c.34-.29.69-.55 1.05-.8a8.1 8.1 0 0 1 2.4-1.1c.44-.1.89-.15 1.36-.15 1.1 0 2.04.2 2.83.6.79.4 1.4 1.04 1.83 1.9.37-.33.76-.65 1.17-.96a8.6 8.6 0 0 1 2.68-1.34 6.79 6.79 0 0 1 3.74.13 4.3 4.3 0 0 1 1.67 1.03c.45.46.8 1.05 1.04 1.76.24.72.36 1.57.36 2.54v7.27h2.11V93h-7.09v-2.52h2.14v-6.93c0-1.16-.3-2.04-.88-2.64-.59-.6-1.43-.9-2.53-.9a4.8 4.8 0 0 0-2.01.47c-.68.3-1.27.7-1.76 1.18v8.82h2.1V93h-7.08v-2.52h2.14v-6.93c0-1.16-.3-2.04-.89-2.64-.59-.6-1.43-.9-2.54-.9-.63 0-1.27.15-1.92.45-.64.3-1.25.68-1.83 1.13v8.89h2.14V93h-7.09v-2.52h2.11V80.34h-2.1v-2.52zm38.95 13.77c-.57.54-1.21.98-1.91 1.32-.7.34-1.5.51-2.38.51-.74 0-1.42-.11-2.04-.35a5 5 0 0 1-1.6-.96 4.03 4.03 0 0 1-1.42-3.13 4.3 4.3 0 0 1 2.16-3.93 6.8 6.8 0 0 1 2.75-.92c.48-.06.94-.1 1.38-.1.7 0 1.3.03 1.77.07.48.05.92.1 1.3.18l.02-1.24c0-.54-.08-1-.23-1.4a2.6 2.6 0 0 0-1.68-1.56c-.4-.13-.84-.19-1.33-.19a8.82 8.82 0 0 0-4.29 1.11l-.9-1.89a9.72 9.72 0 0 1 2.55-1.16c.47-.14.96-.26 1.45-.34a8.77 8.77 0 0 1 3.83.2 4.31 4.31 0 0 1 2.92 2.65c.26.67.4 1.49.4 2.43l-.02 7.59h1.68V93h-4.4v-1.4zm-3.69-.45a5.42 5.42 0 0 0 3.7-1.64v-3.43h-3.16c-.53 0-1 .06-1.44.18-.44.11-.81.29-1.13.51-.32.22-.56.5-.74.83a2.4 2.4 0 0 0-.26 1.15c0 .4.07.75.22 1.04.14.3.35.55.62.75.27.2.59.35.96.46.37.1.78.15 1.23.15zm19.65-10.3a2.27 2.27 0 0 0-.74-.7c-.3-.17-.64-.3-1.01-.39a4.96 4.96 0 0 0-2.16 0c-.33.1-.6.22-.84.39a1.63 1.63 0 0 0-.75 1.4c0 .51.15.92.46 1.21.3.3.82.58 1.55.83l2.91 1.03c1.25.42 2.17.99 2.74 1.71.58.72.87 1.59.87 2.6a4.07 4.07 0 0 1-1.55 3.29c-.5.39-1.09.7-1.78.91-.7.22-1.46.33-2.31.33a6.32 6.32 0 0 1-2.89-.57 4.32 4.32 0 0 1-1.71-1.5h-1.53v-2.53h3.04a2.04 2.04 0 0 0 .98 1.8c.3.2.64.33 1.01.42a5.03 5.03 0 0 0 2.25-.01c.35-.1.66-.23.93-.41.27-.18.48-.4.64-.65.16-.26.24-.54.24-.87 0-.49-.16-.9-.48-1.24a4.11 4.11 0 0 0-1.62-.93l-2.9-1.08a6.2 6.2 0 0 1-2.63-1.6 3.56 3.56 0 0 1-.86-2.44c0-.65.12-1.24.36-1.79s.59-1.02 1.04-1.41c.46-.4 1.01-.7 1.67-.93.65-.23 1.4-.34 2.24-.34 1.08 0 1.99.15 2.72.45.73.3 1.4.82 1.98 1.56h1.42v2.52h-3c0-.41-.1-.76-.29-1.05z"/><g fill="#AFD5D9" fill-rule="nonzero" transform="translate(0 37)"><g transform="translate(583)"><path d="M49.51 20.14a1 1 0 0 0-.5-.13c-3.3 0-5.09-3.43-5.09-3.43a1 1 0 0 0-1.81 0S40.38 20 37 20c-3.36 0-5.09-3.43-5.09-3.43a1 1 0 0 0-1.81 0S28.37 20 25 20c-3.35 0-5.09-3.43-5.09-3.43a1 1 0 0 0-1.81 0S16.37 20 13 20c-3.35 0-5.09-3.43-5.09-3.43a1 1 0 0 0-1-.57 1 1 0 0 0-.1 0 1 1 0 0 0-.71.57S4.3 20 1 20a1 1 0 1 0 0 2c3.41 0 5.12-2.04 6-3.34a6.87 6.87 0 0 0 6 3.34 6.87 6.87 0 0 0 6-3.34 6.87 6.87 0 0 0 6 3.34 6.87 6.87 0 0 0 6-3.34 6.87 6.87 0 0 0 6 3.34 6.87 6.87 0 0 0 6-3.34 6.9 6.9 0 0 0 6 3.34 1 1 0 0 0 .5-.12 1 1 0 0 0 .5.12c3.41 0 5.12-2.04 6-3.34a6.87 6.87 0 0 0 6 3.34 6.87 6.87 0 0 0 6-3.34 6.87 6.87 0 0 0 6 3.34 6.87 6.87 0 0 0 6-3.34 6.87 6.87 0 0 0 6 3.34 6.87 6.87 0 0 0 6-3.34 6.9 6.9 0 0 0 6 3.34 1 1 0 1 0 0-2c-3.3 0-5.09-3.43-5.09-3.43a1 1 0 0 0-1.81 0S89.38 20 86 20c-3.36 0-5.09-3.43-5.09-3.43a1 1 0 0 0-1.81 0S77.37 20 74 20c-3.35 0-5.09-3.43-5.09-3.43a1 1 0 0 0-1.81 0S65.37 20 62 20c-3.35 0-5.09-3.43-5.09-3.43a1 1 0 0 0-1-.57 1 1 0 0 0-.1 0 1 1 0 0 0-.71.57S53.3 20 50 20a1 1 0 0 0-.5.13zm0-16a1 1 0 0 0-.5-.13c-3.3 0-5.09-3.43-5.09-3.43a1 1 0 0 0-1.81 0S40.38 4 37 4c-3.36 0-5.09-3.43-5.09-3.43a1 1 0 0 0-1.81 0S28.37 4 25 4c-3.35 0-5.09-3.43-5.09-3.43a1 1 0 0 0-1.81 0S16.37 4 13 4C9.66 4.01 7.92.58 7.92.58a1 1 0 0 0-1-.57 1 1 0 0 0-.1 0 1 1 0 0 0-.71.57S4.3 4 1 4a1 1 0 1 0 0 2c3.41 0 5.12-2.04 6-3.34a6.87 6.87 0 0 0 6 3.34 6.87 6.87 0 0 0 6-3.34 6.87 6.87 0 0 0 6 3.34 6.87 6.87 0 0 0 6-3.34 6.87 6.87 0 0 0 6 3.34 6.87 6.87 0 0 0 6-3.34 6.9 6.9 0 0 0 6 3.34 1 1 0 0 0 .5-.12 1 1 0 0 0 .5.12c3.41 0 5.12-2.04 6-3.34a6.87 6.87 0 0 0 6 3.34 6.87 6.87 0 0 0 6-3.34 6.87 6.87 0 0 0 6 3.34 6.87 6.87 0 0 0 6-3.34 6.87 6.87 0 0 0 6 3.34 6.87 6.87 0 0 0 6-3.34 6.9 6.9 0 0 0 6 3.34 1 1 0 1 0 0-2c-3.3 0-5.09-3.43-5.09-3.43a1 1 0 0 0-1.81 0S89.38 4 86 4c-3.36 0-5.09-3.43-5.09-3.43a1 1 0 0 0-1.81 0S77.37 4 74 4c-3.35 0-5.09-3.43-5.09-3.43a1 1 0 0 0-1.81 0S65.37 4 62 4c-3.35 0-5.09-3.43-5.09-3.43a1 1 0 0 0-1-.57 1 1 0 0 0-.1 0 1 1 0 0 0-.71.57S53.3 4 50 4a1 1 0 0 0-.5.13z"/><path d="M146.51 20.14a1 1 0 0 0-.5-.13c-3.3 0-5.09-3.43-5.09-3.43a1 1 0 0 0-1.81 0S137.38 20 134 20c-3.36 0-5.09-3.43-5.09-3.43a1 1 0 0 0-1.81 0S125.37 20 122 20c-3.35 0-5.09-3.43-5.09-3.43a1 1 0 0 0-1.81 0S113.37 20 110 20c-3.35 0-5.09-3.43-5.09-3.43a1 1 0 0 0-1-.57 1 1 0 0 0-.1 0 1 1 0 0 0-.71.57S101.3 20 98 20a1 1 0 1 0 0 2c3.41 0 5.12-2.04 6-3.34a6.87 6.87 0 0 0 6 3.34 6.87 6.87 0 0 0 6-3.34 6.87 6.87 0 0 0 6 3.34 6.87 6.87 0 0 0 6-3.34 6.87 6.87 0 0 0 6 3.34 6.87 6.87 0 0 0 6-3.34 6.9 6.9 0 0 0 6 3.34 1 1 0 0 0 .5-.12 1 1 0 0 0 .5.12c3.41 0 5.12-2.04 6-3.34a6.87 6.87 0 0 0 6 3.34 6.87 6.87 0 0 0 6-3.34 6.87 6.87 0 0 0 6 3.34 6.87 6.87 0 0 0 6-3.34 6.87 6.87 0 0 0 6 3.34 6.87 6.87 0 0 0 6-3.34 6.9 6.9 0 0 0 6 3.34 1 1 0 1 0 0-2c-3.3 0-5.09-3.43-5.09-3.43a1 1 0 0 0-1.81 0S186.38 20 183 20c-3.36 0-5.09-3.43-5.09-3.43a1 1 0 0 0-1.81 0S174.37 20 171 20c-3.35 0-5.09-3.43-5.09-3.43a1 1 0 0 0-1.81 0S162.37 20 159 20c-3.35 0-5.09-3.43-5.09-3.43a1 1 0 0 0-1-.57 1 1 0 0 0-.1 0 1 1 0 0 0-.71.57S150.3 20 147 20a1 1 0 0 0-.5.13zm0-16a1 1 0 0 0-.5-.13c-3.3 0-5.09-3.43-5.09-3.43a1 1 0 0 0-1.81 0S137.38 4 134 4c-3.36 0-5.09-3.43-5.09-3.43a1 1 0 0 0-1.81 0S125.37 4 122 4c-3.35 0-5.09-3.43-5.09-3.43a1 1 0 0 0-1.81 0S113.37 4 110 4c-3.35 0-5.09-3.43-5.09-3.43a1 1 0 0 0-1-.57 1 1 0 0 0-.1 0 1 1 0 0 0-.71.57S101.3 4 98 4a1 1 0 1 0 0 2c3.41 0 5.12-2.04 6-3.34a6.87 6.87 0 0 0 6 3.34 6.87 6.87 0 0 0 6-3.34 6.87 6.87 0 0 0 6 3.34 6.87 6.87 0 0 0 6-3.34 6.87 6.87 0 0 0 6 3.34 6.87 6.87 0 0 0 6-3.34 6.9 6.9 0 0 0 6 3.34 1 1 0 0 0 .5-.12 1 1 0 0 0 .5.12c3.41 0 5.12-2.04 6-3.34a6.87 6.87 0 0 0 6 3.34 6.87 6.87 0 0 0 6-3.34 6.87 6.87 0 0 0 6 3.34 6.87 6.87 0 0 0 6-3.34 6.87 6.87 0 0 0 6 3.34 6.87 6.87 0 0 0 6-3.34 6.9 6.9 0 0 0 6 3.34 1 1 0 1 0 0-2c-3.3 0-5.09-3.43-5.09-3.43a1 1 0 0 0-1.81 0S186.38 4 183 4c-3.36 0-5.09-3.43-5.09-3.43a1 1 0 0 0-1.81 0S174.37 4 171 4c-3.35 0-5.09-3.43-5.09-3.43a1 1 0 0 0-1.81 0S162.37 4 159 4c-3.35 0-5.09-3.43-5.09-3.43a1 1 0 0 0-1-.57 1 1 0 0 0-.1 0 1 1 0 0 0-.71.57S150.3 4 147 4a1 1 0 0 0-.5.13z"/></g><g transform="translate(194)"><path d="M49.51 20.14a1 1 0 0 0-.5-.13c-3.3 0-5.09-3.43-5.09-3.43a1 1 0 0 0-1.81 0S40.38 20 37 20c-3.36 0-5.09-3.43-5.09-3.43a1 1 0 0 0-1.81 0S28.37 20 25 20c-3.35 0-5.09-3.43-5.09-3.43a1 1 0 0 0-1.81 0S16.37 20 13 20c-3.35 0-5.09-3.43-5.09-3.43a1 1 0 0 0-1-.57 1 1 0 0 0-.1 0 1 1 0 0 0-.71.57S4.3 20 1 20a1 1 0 1 0 0 2c3.41 0 5.12-2.04 6-3.34a6.87 6.87 0 0 0 6 3.34 6.87 6.87 0 0 0 6-3.34 6.87 6.87 0 0 0 6 3.34 6.87 6.87 0 0 0 6-3.34 6.87 6.87 0 0 0 6 3.34 6.87 6.87 0 0 0 6-3.34 6.9 6.9 0 0 0 6 3.34 1 1 0 0 0 .5-.12 1 1 0 0 0 .5.12c3.41 0 5.12-2.04 6-3.34a6.87 6.87 0 0 0 6 3.34 6.87 6.87 0 0 0 6-3.34 6.87 6.87 0 0 0 6 3.34 6.87 6.87 0 0 0 6-3.34 6.87 6.87 0 0 0 6 3.34 6.87 6.87 0 0 0 6-3.34 6.9 6.9 0 0 0 6 3.34 1 1 0 1 0 0-2c-3.3 0-5.09-3.43-5.09-3.43a1 1 0 0 0-1.81 0S89.38 20 86 20c-3.36 0-5.09-3.43-5.09-3.43a1 1 0 0 0-1.81 0S77.37 20 74 20c-3.35 0-5.09-3.43-5.09-3.43a1 1 0 0 0-1.81 0S65.37 20 62 20c-3.35 0-5.09-3.43-5.09-3.43a1 1 0 0 0-1-.57 1 1 0 0 0-.1 0 1 1 0 0 0-.71.57S53.3 20 50 20a1 1 0 0 0-.5.13zm0-16a1 1 0 0 0-.5-.13c-3.3 0-5.09-3.43-5.09-3.43a1 1 0 0 0-1.81 0S40.38 4 37 4c-3.36 0-5.09-3.43-5.09-3.43a1 1 0 0 0-1.81 0S28.37 4 25 4c-3.35 0-5.09-3.43-5.09-3.43a1 1 0 0 0-1.81 0S16.37 4 13 4C9.66 4.01 7.92.58 7.92.58a1 1 0 0 0-1-.57 1 1 0 0 0-.1 0 1 1 0 0 0-.71.57S4.3 4 1 4a1 1 0 1 0 0 2c3.41 0 5.12-2.04 6-3.34a6.87 6.87 0 0 0 6 3.34 6.87 6.87 0 0 0 6-3.34 6.87 6.87 0 0 0 6 3.34 6.87 6.87 0 0 0 6-3.34 6.87 6.87 0 0 0 6 3.34 6.87 6.87 0 0 0 6-3.34 6.9 6.9 0 0 0 6 3.34 1 1 0 0 0 .5-.12 1 1 0 0 0 .5.12c3.41 0 5.12-2.04 6-3.34a6.87 6.87 0 0 0 6 3.34 6.87 6.87 0 0 0 6-3.34 6.87 6.87 0 0 0 6 3.34 6.87 6.87 0 0 0 6-3.34 6.87 6.87 0 0 0 6 3.34 6.87 6.87 0 0 0 6-3.34 6.9 6.9 0 0 0 6 3.34 1 1 0 1 0 0-2c-3.3 0-5.09-3.43-5.09-3.43a1 1 0 0 0-1.81 0S89.38 4 86 4c-3.36 0-5.09-3.43-5.09-3.43a1 1 0 0 0-1.81 0S77.37 4 74 4c-3.35 0-5.09-3.43-5.09-3.43a1 1 0 0 0-1.81 0S65.37 4 62 4c-3.35 0-5.09-3.43-5.09-3.43a1 1 0 0 0-1-.57 1 1 0 0 0-.1 0 1 1 0 0 0-.71.57S53.3 4 50 4a1 1 0 0 0-.5.13z"/><path d="M146.51 20.14a1 1 0 0 0-.5-.13c-3.3 0-5.09-3.43-5.09-3.43a1 1 0 0 0-1.81 0S137.38 20 134 20c-3.36 0-5.09-3.43-5.09-3.43a1 1 0 0 0-1.81 0S125.37 20 122 20c-3.35 0-5.09-3.43-5.09-3.43a1 1 0 0 0-1.81 0S113.37 20 110 20c-3.35 0-5.09-3.43-5.09-3.43a1 1 0 0 0-1-.57 1 1 0 0 0-.1 0 1 1 0 0 0-.71.57S101.3 20 98 20a1 1 0 1 0 0 2c3.41 0 5.12-2.04 6-3.34a6.87 6.87 0 0 0 6 3.34 6.87 6.87 0 0 0 6-3.34 6.87 6.87 0 0 0 6 3.34 6.87 6.87 0 0 0 6-3.34 6.87 6.87 0 0 0 6 3.34 6.87 6.87 0 0 0 6-3.34 6.9 6.9 0 0 0 6 3.34 1 1 0 0 0 .5-.12 1 1 0 0 0 .5.12c3.41 0 5.12-2.04 6-3.34a6.87 6.87 0 0 0 6 3.34 6.87 6.87 0 0 0 6-3.34 6.87 6.87 0 0 0 6 3.34 6.87 6.87 0 0 0 6-3.34 6.87 6.87 0 0 0 6 3.34 6.87 6.87 0 0 0 6-3.34 6.9 6.9 0 0 0 6 3.34 1 1 0 1 0 0-2c-3.3 0-5.09-3.43-5.09-3.43a1 1 0 0 0-1.81 0S186.38 20 183 20c-3.36 0-5.09-3.43-5.09-3.43a1 1 0 0 0-1.81 0S174.37 20 171 20c-3.35 0-5.09-3.43-5.09-3.43a1 1 0 0 0-1.81 0S162.37 20 159 20c-3.35 0-5.09-3.43-5.09-3.43a1 1 0 0 0-1-.57 1 1 0 0 0-.1 0 1 1 0 0 0-.71.57S150.3 20 147 20a1 1 0 0 0-.5.13zm0-16a1 1 0 0 0-.5-.13c-3.3 0-5.09-3.43-5.09-3.43a1 1 0 0 0-1.81 0S137.38 4 134 4c-3.36 0-5.09-3.43-5.09-3.43a1 1 0 0 0-1.81 0S125.37 4 122 4c-3.35 0-5.09-3.43-5.09-3.43a1 1 0 0 0-1.81 0S113.37 4 110 4c-3.35 0-5.09-3.43-5.09-3.43a1 1 0 0 0-1-.57 1 1 0 0 0-.1 0 1 1 0 0 0-.71.57S101.3 4 98 4a1 1 0 1 0 0 2c3.41 0 5.12-2.04 6-3.34a6.87 6.87 0 0 0 6 3.34 6.87 6.87 0 0 0 6-3.34 6.87 6.87 0 0 0 6 3.34 6.87 6.87 0 0 0 6-3.34 6.87 6.87 0 0 0 6 3.34 6.87 6.87 0 0 0 6-3.34 6.9 6.9 0 0 0 6 3.34 1 1 0 0 0 .5-.12 1 1 0 0 0 .5.12c3.41 0 5.12-2.04 6-3.34a6.87 6.87 0 0 0 6 3.34 6.87 6.87 0 0 0 6-3.34 6.87 6.87 0 0 0 6 3.34 6.87 6.87 0 0 0 6-3.34 6.87 6.87 0 0 0 6 3.34 6.87 6.87 0 0 0 6-3.34 6.9 6.9 0 0 0 6 3.34 1 1 0 1 0 0-2c-3.3 0-5.09-3.43-5.09-3.43a1 1 0 0 0-1.81 0S186.38 4 183 4c-3.36 0-5.09-3.43-5.09-3.43a1 1 0 0 0-1.81 0S174.37 4 171 4c-3.35 0-5.09-3.43-5.09-3.43a1 1 0 0 0-1.81 0S162.37 4 159 4c-3.35 0-5.09-3.43-5.09-3.43a1 1 0 0 0-1-.57 1 1 0 0 0-.1 0 1 1 0 0 0-.71.57S150.3 4 147 4a1 1 0 0 0-.5.13z"/></g><g transform="translate(389)"><path d="M49.51 20.14a1 1 0 0 0-.5-.13c-3.3 0-5.09-3.43-5.09-3.43a1 1 0 0 0-1.81 0S40.38 20 37 20c-3.36 0-5.09-3.43-5.09-3.43a1 1 0 0 0-1.81 0S28.37 20 25 20c-3.35 0-5.09-3.43-5.09-3.43a1 1 0 0 0-1.81 0S16.37 20 13 20c-3.35 0-5.09-3.43-5.09-3.43a1 1 0 0 0-1-.57 1 1 0 0 0-.1 0 1 1 0 0 0-.71.57S4.3 20 1 20a1 1 0 1 0 0 2c3.41 0 5.12-2.04 6-3.34a6.87 6.87 0 0 0 6 3.34 6.87 6.87 0 0 0 6-3.34 6.87 6.87 0 0 0 6 3.34 6.87 6.87 0 0 0 6-3.34 6.87 6.87 0 0 0 6 3.34 6.87 6.87 0 0 0 6-3.34 6.9 6.9 0 0 0 6 3.34 1 1 0 0 0 .5-.12 1 1 0 0 0 .5.12c3.41 0 5.12-2.04 6-3.34a6.87 6.87 0 0 0 6 3.34 6.87 6.87 0 0 0 6-3.34 6.87 6.87 0 0 0 6 3.34 6.87 6.87 0 0 0 6-3.34 6.87 6.87 0 0 0 6 3.34 6.87 6.87 0 0 0 6-3.34 6.9 6.9 0 0 0 6 3.34 1 1 0 1 0 0-2c-3.3 0-5.09-3.43-5.09-3.43a1 1 0 0 0-1.81 0S89.38 20 86 20c-3.36 0-5.09-3.43-5.09-3.43a1 1 0 0 0-1.81 0S77.37 20 74 20c-3.35 0-5.09-3.43-5.09-3.43a1 1 0 0 0-1.81 0S65.37 20 62 20c-3.35 0-5.09-3.43-5.09-3.43a1 1 0 0 0-1-.57 1 1 0 0 0-.1 0 1 1 0 0 0-.71.57S53.3 20 50 20a1 1 0 0 0-.5.13zm0-16a1 1 0 0 0-.5-.13c-3.3 0-5.09-3.43-5.09-3.43a1 1 0 0 0-1.81 0S40.38 4 37 4c-3.36 0-5.09-3.43-5.09-3.43a1 1 0 0 0-1.81 0S28.37 4 25 4c-3.35 0-5.09-3.43-5.09-3.43a1 1 0 0 0-1.81 0S16.37 4 13 4C9.66 4.01 7.92.58 7.92.58a1 1 0 0 0-1-.57 1 1 0 0 0-.1 0 1 1 0 0 0-.71.57S4.3 4 1 4a1 1 0 1 0 0 2c3.41 0 5.12-2.04 6-3.34a6.87 6.87 0 0 0 6 3.34 6.87 6.87 0 0 0 6-3.34 6.87 6.87 0 0 0 6 3.34 6.87 6.87 0 0 0 6-3.34 6.87 6.87 0 0 0 6 3.34 6.87 6.87 0 0 0 6-3.34 6.9 6.9 0 0 0 6 3.34 1 1 0 0 0 .5-.12 1 1 0 0 0 .5.12c3.41 0 5.12-2.04 6-3.34a6.87 6.87 0 0 0 6 3.34 6.87 6.87 0 0 0 6-3.34 6.87 6.87 0 0 0 6 3.34 6.87 6.87 0 0 0 6-3.34 6.87 6.87 0 0 0 6 3.34 6.87 6.87 0 0 0 6-3.34 6.9 6.9 0 0 0 6 3.34 1 1 0 1 0 0-2c-3.3 0-5.09-3.43-5.09-3.43a1 1 0 0 0-1.81 0S89.38 4 86 4c-3.36 0-5.09-3.43-5.09-3.43a1 1 0 0 0-1.81 0S77.37 4 74 4c-3.35 0-5.09-3.43-5.09-3.43a1 1 0 0 0-1.81 0S65.37 4 62 4c-3.35 0-5.09-3.43-5.09-3.43a1 1 0 0 0-1-.57 1 1 0 0 0-.1 0 1 1 0 0 0-.71.57S53.3 4 50 4a1 1 0 0 0-.5.13z"/><path d="M146.51 20.14a1 1 0 0 0-.5-.13c-3.3 0-5.09-3.43-5.09-3.43a1 1 0 0 0-1.81 0S137.38 20 134 20c-3.36 0-5.09-3.43-5.09-3.43a1 1 0 0 0-1.81 0S125.37 20 122 20c-3.35 0-5.09-3.43-5.09-3.43a1 1 0 0 0-1.81 0S113.37 20 110 20c-3.35 0-5.09-3.43-5.09-3.43a1 1 0 0 0-1-.57 1 1 0 0 0-.1 0 1 1 0 0 0-.71.57S101.3 20 98 20a1 1 0 1 0 0 2c3.41 0 5.12-2.04 6-3.34a6.87 6.87 0 0 0 6 3.34 6.87 6.87 0 0 0 6-3.34 6.87 6.87 0 0 0 6 3.34 6.87 6.87 0 0 0 6-3.34 6.87 6.87 0 0 0 6 3.34 6.87 6.87 0 0 0 6-3.34 6.9 6.9 0 0 0 6 3.34 1 1 0 0 0 .5-.12 1 1 0 0 0 .5.12c3.41 0 5.12-2.04 6-3.34a6.87 6.87 0 0 0 6 3.34 6.87 6.87 0 0 0 6-3.34 6.87 6.87 0 0 0 6 3.34 6.87 6.87 0 0 0 6-3.34 6.87 6.87 0 0 0 6 3.34 6.87 6.87 0 0 0 6-3.34 6.9 6.9 0 0 0 6 3.34 1 1 0 1 0 0-2c-3.3 0-5.09-3.43-5.09-3.43a1 1 0 0 0-1.81 0S186.38 20 183 20c-3.36 0-5.09-3.43-5.09-3.43a1 1 0 0 0-1.81 0S174.37 20 171 20c-3.35 0-5.09-3.43-5.09-3.43a1 1 0 0 0-1.81 0S162.37 20 159 20c-3.35 0-5.09-3.43-5.09-3.43a1 1 0 0 0-1-.57 1 1 0 0 0-.1 0 1 1 0 0 0-.71.57S150.3 20 147 20a1 1 0 0 0-.5.13zm0-16a1 1 0 0 0-.5-.13c-3.3 0-5.09-3.43-5.09-3.43a1 1 0 0 0-1.81 0S137.38 4 134 4c-3.36 0-5.09-3.43-5.09-3.43a1 1 0 0 0-1.81 0S125.37 4 122 4c-3.35 0-5.09-3.43-5.09-3.43a1 1 0 0 0-1.81 0S113.37 4 110 4c-3.35 0-5.09-3.43-5.09-3.43a1 1 0 0 0-1-.57 1 1 0 0 0-.1 0 1 1 0 0 0-.71.57S101.3 4 98 4a1 1 0 1 0 0 2c3.41 0 5.12-2.04 6-3.34a6.87 6.87 0 0 0 6 3.34 6.87 6.87 0 0 0 6-3.34 6.87 6.87 0 0 0 6 3.34 6.87 6.87 0 0 0 6-3.34 6.87 6.87 0 0 0 6 3.34 6.87 6.87 0 0 0 6-3.34 6.9 6.9 0 0 0 6 3.34 1 1 0 0 0 .5-.12 1 1 0 0 0 .5.12c3.41 0 5.12-2.04 6-3.34a6.87 6.87 0 0 0 6 3.34 6.87 6.87 0 0 0 6-3.34 6.87 6.87 0 0 0 6 3.34 6.87 6.87 0 0 0 6-3.34 6.87 6.87 0 0 0 6 3.34 6.87 6.87 0 0 0 6-3.34 6.9 6.9 0 0 0 6 3.34 1 1 0 1 0 0-2c-3.3 0-5.09-3.43-5.09-3.43a1 1 0 0 0-1.81 0S186.38 4 183 4c-3.36 0-5.09-3.43-5.09-3.43a1 1 0 0 0-1.81 0S174.37 4 171 4c-3.35 0-5.09-3.43-5.09-3.43a1 1 0 0 0-1.81 0S162.37 4 159 4c-3.35 0-5.09-3.43-5.09-3.43a1 1 0 0 0-1-.57 1 1 0 0 0-.1 0 1 1 0 0 0-.71.57S150.3 4 147 4a1 1 0 0 0-.5.13z"/></g><path d="M49.51 20.14a1 1 0 0 0-.5-.13c-3.3 0-5.09-3.43-5.09-3.43a1 1 0 0 0-1.81 0S40.38 20 37 20c-3.36 0-5.09-3.43-5.09-3.43a1 1 0 0 0-1.81 0S28.37 20 25 20c-3.35 0-5.09-3.43-5.09-3.43a1 1 0 0 0-1.81 0S16.37 20 13 20c-3.35 0-5.09-3.43-5.09-3.43a1 1 0 0 0-1-.57 1 1 0 0 0-.1 0 1 1 0 0 0-.71.57S4.3 20 1 20a1 1 0 1 0 0 2c3.41 0 5.12-2.04 6-3.34a6.87 6.87 0 0 0 6 3.34 6.87 6.87 0 0 0 6-3.34 6.87 6.87 0 0 0 6 3.34 6.87 6.87 0 0 0 6-3.34 6.87 6.87 0 0 0 6 3.34 6.87 6.87 0 0 0 6-3.34 6.9 6.9 0 0 0 6 3.34 1 1 0 0 0 .5-.12 1 1 0 0 0 .5.12c3.41 0 5.12-2.04 6-3.34a6.87 6.87 0 0 0 6 3.34 6.87 6.87 0 0 0 6-3.34 6.87 6.87 0 0 0 6 3.34 6.87 6.87 0 0 0 6-3.34 6.87 6.87 0 0 0 6 3.34 6.87 6.87 0 0 0 6-3.34 6.9 6.9 0 0 0 6 3.34 1 1 0 1 0 0-2c-3.3 0-5.09-3.43-5.09-3.43a1 1 0 0 0-1.81 0S89.38 20 86 20c-3.36 0-5.09-3.43-5.09-3.43a1 1 0 0 0-1.81 0S77.37 20 74 20c-3.35 0-5.09-3.43-5.09-3.43a1 1 0 0 0-1.81 0S65.37 20 62 20c-3.35 0-5.09-3.43-5.09-3.43a1 1 0 0 0-1-.57 1 1 0 0 0-.1 0 1 1 0 0 0-.71.57S53.3 20 50 20a1 1 0 0 0-.5.13zm0-16a1 1 0 0 0-.5-.13c-3.3 0-5.09-3.43-5.09-3.43a1 1 0 0 0-1.81 0S40.38 4 37 4c-3.36 0-5.09-3.43-5.09-3.43a1 1 0 0 0-1.81 0S28.37 4 25 4c-3.35 0-5.09-3.43-5.09-3.43a1 1 0 0 0-1.81 0S16.37 4 13 4C9.66 4.01 7.92.58 7.92.58a1 1 0 0 0-1-.57 1 1 0 0 0-.1 0 1 1 0 0 0-.71.57S4.3 4 1 4a1 1 0 1 0 0 2c3.41 0 5.12-2.04 6-3.34a6.87 6.87 0 0 0 6 3.34 6.87 6.87 0 0 0 6-3.34 6.87 6.87 0 0 0 6 3.34 6.87 6.87 0 0 0 6-3.34 6.87 6.87 0 0 0 6 3.34 6.87 6.87 0 0 0 6-3.34 6.9 6.9 0 0 0 6 3.34 1 1 0 0 0 .5-.12 1 1 0 0 0 .5.12c3.41 0 5.12-2.04 6-3.34a6.87 6.87 0 0 0 6 3.34 6.87 6.87 0 0 0 6-3.34 6.87 6.87 0 0 0 6 3.34 6.87 6.87 0 0 0 6-3.34 6.87 6.87 0 0 0 6 3.34 6.87 6.87 0 0 0 6-3.34 6.9 6.9 0 0 0 6 3.34 1 1 0 1 0 0-2c-3.3 0-5.09-3.43-5.09-3.43a1 1 0 0 0-1.81 0S89.38 4 86 4c-3.36 0-5.09-3.43-5.09-3.43a1 1 0 0 0-1.81 0S77.37 4 74 4c-3.35 0-5.09-3.43-5.09-3.43a1 1 0 0 0-1.81 0S65.37 4 62 4c-3.35 0-5.09-3.43-5.09-3.43a1 1 0 0 0-1-.57 1 1 0 0 0-.1 0 1 1 0 0 0-.71.57S53.3 4 50 4a1 1 0 0 0-.5.13z"/><path d="M146.51 20.14a1 1 0 0 0-.5-.13c-3.3 0-5.09-3.43-5.09-3.43a1 1 0 0 0-1.81 0S137.38 20 134 20c-3.36 0-5.09-3.43-5.09-3.43a1 1 0 0 0-1.81 0S125.37 20 122 20c-3.35 0-5.09-3.43-5.09-3.43a1 1 0 0 0-1.81 0S113.37 20 110 20c-3.35 0-5.09-3.43-5.09-3.43a1 1 0 0 0-1-.57 1 1 0 0 0-.1 0 1 1 0 0 0-.71.57S101.3 20 98 20a1 1 0 1 0 0 2c3.41 0 5.12-2.04 6-3.34a6.87 6.87 0 0 0 6 3.34 6.87 6.87 0 0 0 6-3.34 6.87 6.87 0 0 0 6 3.34 6.87 6.87 0 0 0 6-3.34 6.87 6.87 0 0 0 6 3.34 6.87 6.87 0 0 0 6-3.34 6.9 6.9 0 0 0 6 3.34 1 1 0 0 0 .5-.12 1 1 0 0 0 .5.12c3.41 0 5.12-2.04 6-3.34a6.87 6.87 0 0 0 6 3.34 6.87 6.87 0 0 0 6-3.34 6.87 6.87 0 0 0 6 3.34 6.87 6.87 0 0 0 6-3.34 6.87 6.87 0 0 0 6 3.34 6.87 6.87 0 0 0 6-3.34 6.9 6.9 0 0 0 6 3.34 1 1 0 1 0 0-2c-3.3 0-5.09-3.43-5.09-3.43a1 1 0 0 0-1.81 0S186.38 20 183 20c-3.36 0-5.09-3.43-5.09-3.43a1 1 0 0 0-1.81 0S174.37 20 171 20c-3.35 0-5.09-3.43-5.09-3.43a1 1 0 0 0-1.81 0S162.37 20 159 20c-3.35 0-5.09-3.43-5.09-3.43a1 1 0 0 0-1-.57 1 1 0 0 0-.1 0 1 1 0 0 0-.71.57S150.3 20 147 20a1 1 0 0 0-.5.13zm0-16a1 1 0 0 0-.5-.13c-3.3 0-5.09-3.43-5.09-3.43a1 1 0 0 0-1.81 0S137.38 4 134 4c-3.36 0-5.09-3.43-5.09-3.43a1 1 0 0 0-1.81 0S125.37 4 122 4c-3.35 0-5.09-3.43-5.09-3.43a1 1 0 0 0-1.81 0S113.37 4 110 4c-3.35 0-5.09-3.43-5.09-3.43a1 1 0 0 0-1-.57 1 1 0 0 0-.1 0 1 1 0 0 0-.71.57S101.3 4 98 4a1 1 0 1 0 0 2c3.41 0 5.12-2.04 6-3.34a6.87 6.87 0 0 0 6 3.34 6.87 6.87 0 0 0 6-3.34 6.87 6.87 0 0 0 6 3.34 6.87 6.87 0 0 0 6-3.34 6.87 6.87 0 0 0 6 3.34 6.87 6.87 0 0 0 6-3.34 6.9 6.9 0 0 0 6 3.34 1 1 0 0 0 .5-.12 1 1 0 0 0 .5.12c3.41 0 5.12-2.04 6-3.34a6.87 6.87 0 0 0 6 3.34 6.87 6.87 0 0 0 6-3.34 6.87 6.87 0 0 0 6 3.34 6.87 6.87 0 0 0 6-3.34 6.87 6.87 0 0 0 6 3.34 6.87 6.87 0 0 0 6-3.34 6.9 6.9 0 0 0 6 3.34 1 1 0 1 0 0-2c-3.3 0-5.09-3.43-5.09-3.43a1 1 0 0 0-1.81 0S186.38 4 183 4c-3.36 0-5.09-3.43-5.09-3.43a1 1 0 0 0-1.81 0S174.37 4 171 4c-3.35 0-5.09-3.43-5.09-3.43a1 1 0 0 0-1.81 0S162.37 4 159 4c-3.35 0-5.09-3.43-5.09-3.43a1 1 0 0 0-1-.57 1 1 0 0 0-.1 0 1 1 0 0 0-.71.57S150.3 4 147 4a1 1 0 0 0-.5.13z"/></g><g fill="#AFD5D9" fill-rule="nonzero" transform="translate(831 37)"><g transform="translate(583)"><path d="M49.51 20.14a1 1 0 0 0-.5-.13c-3.3 0-5.09-3.43-5.09-3.43a1 1 0 0 0-1.81 0S40.38 20 37 20c-3.36 0-5.09-3.43-5.09-3.43a1 1 0 0 0-1.81 0S28.37 20 25 20c-3.35 0-5.09-3.43-5.09-3.43a1 1 0 0 0-1.81 0S16.37 20 13 20c-3.35 0-5.09-3.43-5.09-3.43a1 1 0 0 0-1-.57 1 1 0 0 0-.1 0 1 1 0 0 0-.71.57S4.3 20 1 20a1 1 0 1 0 0 2c3.41 0 5.12-2.04 6-3.34a6.87 6.87 0 0 0 6 3.34 6.87 6.87 0 0 0 6-3.34 6.87 6.87 0 0 0 6 3.34 6.87 6.87 0 0 0 6-3.34 6.87 6.87 0 0 0 6 3.34 6.87 6.87 0 0 0 6-3.34 6.9 6.9 0 0 0 6 3.34 1 1 0 0 0 .5-.12 1 1 0 0 0 .5.12c3.41 0 5.12-2.04 6-3.34a6.87 6.87 0 0 0 6 3.34 6.87 6.87 0 0 0 6-3.34 6.87 6.87 0 0 0 6 3.34 6.87 6.87 0 0 0 6-3.34 6.87 6.87 0 0 0 6 3.34 6.87 6.87 0 0 0 6-3.34 6.9 6.9 0 0 0 6 3.34 1 1 0 1 0 0-2c-3.3 0-5.09-3.43-5.09-3.43a1 1 0 0 0-1.81 0S89.38 20 86 20c-3.36 0-5.09-3.43-5.09-3.43a1 1 0 0 0-1.81 0S77.37 20 74 20c-3.35 0-5.09-3.43-5.09-3.43a1 1 0 0 0-1.81 0S65.37 20 62 20c-3.35 0-5.09-3.43-5.09-3.43a1 1 0 0 0-1-.57 1 1 0 0 0-.1 0 1 1 0 0 0-.71.57S53.3 20 50 20a1 1 0 0 0-.5.13zm0-16a1 1 0 0 0-.5-.13c-3.3 0-5.09-3.43-5.09-3.43a1 1 0 0 0-1.81 0S40.38 4 37 4c-3.36 0-5.09-3.43-5.09-3.43a1 1 0 0 0-1.81 0S28.37 4 25 4c-3.35 0-5.09-3.43-5.09-3.43a1 1 0 0 0-1.81 0S16.37 4 13 4C9.66 4.01 7.92.58 7.92.58a1 1 0 0 0-1-.57 1 1 0 0 0-.1 0 1 1 0 0 0-.71.57S4.3 4 1 4a1 1 0 1 0 0 2c3.41 0 5.12-2.04 6-3.34a6.87 6.87 0 0 0 6 3.34 6.87 6.87 0 0 0 6-3.34 6.87 6.87 0 0 0 6 3.34 6.87 6.87 0 0 0 6-3.34 6.87 6.87 0 0 0 6 3.34 6.87 6.87 0 0 0 6-3.34 6.9 6.9 0 0 0 6 3.34 1 1 0 0 0 .5-.12 1 1 0 0 0 .5.12c3.41 0 5.12-2.04 6-3.34a6.87 6.87 0 0 0 6 3.34 6.87 6.87 0 0 0 6-3.34 6.87 6.87 0 0 0 6 3.34 6.87 6.87 0 0 0 6-3.34 6.87 6.87 0 0 0 6 3.34 6.87 6.87 0 0 0 6-3.34 6.9 6.9 0 0 0 6 3.34 1 1 0 1 0 0-2c-3.3 0-5.09-3.43-5.09-3.43a1 1 0 0 0-1.81 0S89.38 4 86 4c-3.36 0-5.09-3.43-5.09-3.43a1 1 0 0 0-1.81 0S77.37 4 74 4c-3.35 0-5.09-3.43-5.09-3.43a1 1 0 0 0-1.81 0S65.37 4 62 4c-3.35 0-5.09-3.43-5.09-3.43a1 1 0 0 0-1-.57 1 1 0 0 0-.1 0 1 1 0 0 0-.71.57S53.3 4 50 4a1 1 0 0 0-.5.13z"/><path d="M146.51 20.14a1 1 0 0 0-.5-.13c-3.3 0-5.09-3.43-5.09-3.43a1 1 0 0 0-1.81 0S137.38 20 134 20c-3.36 0-5.09-3.43-5.09-3.43a1 1 0 0 0-1.81 0S125.37 20 122 20c-3.35 0-5.09-3.43-5.09-3.43a1 1 0 0 0-1.81 0S113.37 20 110 20c-3.35 0-5.09-3.43-5.09-3.43a1 1 0 0 0-1-.57 1 1 0 0 0-.1 0 1 1 0 0 0-.71.57S101.3 20 98 20a1 1 0 1 0 0 2c3.41 0 5.12-2.04 6-3.34a6.87 6.87 0 0 0 6 3.34 6.87 6.87 0 0 0 6-3.34 6.87 6.87 0 0 0 6 3.34 6.87 6.87 0 0 0 6-3.34 6.87 6.87 0 0 0 6 3.34 6.87 6.87 0 0 0 6-3.34 6.9 6.9 0 0 0 6 3.34 1 1 0 0 0 .5-.12 1 1 0 0 0 .5.12c3.41 0 5.12-2.04 6-3.34a6.87 6.87 0 0 0 6 3.34 6.87 6.87 0 0 0 6-3.34 6.87 6.87 0 0 0 6 3.34 6.87 6.87 0 0 0 6-3.34 6.87 6.87 0 0 0 6 3.34 6.87 6.87 0 0 0 6-3.34 6.9 6.9 0 0 0 6 3.34 1 1 0 1 0 0-2c-3.3 0-5.09-3.43-5.09-3.43a1 1 0 0 0-1.81 0S186.38 20 183 20c-3.36 0-5.09-3.43-5.09-3.43a1 1 0 0 0-1.81 0S174.37 20 171 20c-3.35 0-5.09-3.43-5.09-3.43a1 1 0 0 0-1.81 0S162.37 20 159 20c-3.35 0-5.09-3.43-5.09-3.43a1 1 0 0 0-1-.57 1 1 0 0 0-.1 0 1 1 0 0 0-.71.57S150.3 20 147 20a1 1 0 0 0-.5.13zm0-16a1 1 0 0 0-.5-.13c-3.3 0-5.09-3.43-5.09-3.43a1 1 0 0 0-1.81 0S137.38 4 134 4c-3.36 0-5.09-3.43-5.09-3.43a1 1 0 0 0-1.81 0S125.37 4 122 4c-3.35 0-5.09-3.43-5.09-3.43a1 1 0 0 0-1.81 0S113.37 4 110 4c-3.35 0-5.09-3.43-5.09-3.43a1 1 0 0 0-1-.57 1 1 0 0 0-.1 0 1 1 0 0 0-.71.57S101.3 4 98 4a1 1 0 1 0 0 2c3.41 0 5.12-2.04 6-3.34a6.87 6.87 0 0 0 6 3.34 6.87 6.87 0 0 0 6-3.34 6.87 6.87 0 0 0 6 3.34 6.87 6.87 0 0 0 6-3.34 6.87 6.87 0 0 0 6 3.34 6.87 6.87 0 0 0 6-3.34 6.9 6.9 0 0 0 6 3.34 1 1 0 0 0 .5-.12 1 1 0 0 0 .5.12c3.41 0 5.12-2.04 6-3.34a6.87 6.87 0 0 0 6 3.34 6.87 6.87 0 0 0 6-3.34 6.87 6.87 0 0 0 6 3.34 6.87 6.87 0 0 0 6-3.34 6.87 6.87 0 0 0 6 3.34 6.87 6.87 0 0 0 6-3.34 6.9 6.9 0 0 0 6 3.34 1 1 0 1 0 0-2c-3.3 0-5.09-3.43-5.09-3.43a1 1 0 0 0-1.81 0S186.38 4 183 4c-3.36 0-5.09-3.43-5.09-3.43a1 1 0 0 0-1.81 0S174.37 4 171 4c-3.35 0-5.09-3.43-5.09-3.43a1 1 0 0 0-1.81 0S162.37 4 159 4c-3.35 0-5.09-3.43-5.09-3.43a1 1 0 0 0-1-.57 1 1 0 0 0-.1 0 1 1 0 0 0-.71.57S150.3 4 147 4a1 1 0 0 0-.5.13z"/></g><g transform="translate(194)"><path d="M49.51 20.14a1 1 0 0 0-.5-.13c-3.3 0-5.09-3.43-5.09-3.43a1 1 0 0 0-1.81 0S40.38 20 37 20c-3.36 0-5.09-3.43-5.09-3.43a1 1 0 0 0-1.81 0S28.37 20 25 20c-3.35 0-5.09-3.43-5.09-3.43a1 1 0 0 0-1.81 0S16.37 20 13 20c-3.35 0-5.09-3.43-5.09-3.43a1 1 0 0 0-1-.57 1 1 0 0 0-.1 0 1 1 0 0 0-.71.57S4.3 20 1 20a1 1 0 1 0 0 2c3.41 0 5.12-2.04 6-3.34a6.87 6.87 0 0 0 6 3.34 6.87 6.87 0 0 0 6-3.34 6.87 6.87 0 0 0 6 3.34 6.87 6.87 0 0 0 6-3.34 6.87 6.87 0 0 0 6 3.34 6.87 6.87 0 0 0 6-3.34 6.9 6.9 0 0 0 6 3.34 1 1 0 0 0 .5-.12 1 1 0 0 0 .5.12c3.41 0 5.12-2.04 6-3.34a6.87 6.87 0 0 0 6 3.34 6.87 6.87 0 0 0 6-3.34 6.87 6.87 0 0 0 6 3.34 6.87 6.87 0 0 0 6-3.34 6.87 6.87 0 0 0 6 3.34 6.87 6.87 0 0 0 6-3.34 6.9 6.9 0 0 0 6 3.34 1 1 0 1 0 0-2c-3.3 0-5.09-3.43-5.09-3.43a1 1 0 0 0-1.81 0S89.38 20 86 20c-3.36 0-5.09-3.43-5.09-3.43a1 1 0 0 0-1.81 0S77.37 20 74 20c-3.35 0-5.09-3.43-5.09-3.43a1 1 0 0 0-1.81 0S65.37 20 62 20c-3.35 0-5.09-3.43-5.09-3.43a1 1 0 0 0-1-.57 1 1 0 0 0-.1 0 1 1 0 0 0-.71.57S53.3 20 50 20a1 1 0 0 0-.5.13zm0-16a1 1 0 0 0-.5-.13c-3.3 0-5.09-3.43-5.09-3.43a1 1 0 0 0-1.81 0S40.38 4 37 4c-3.36 0-5.09-3.43-5.09-3.43a1 1 0 0 0-1.81 0S28.37 4 25 4c-3.35 0-5.09-3.43-5.09-3.43a1 1 0 0 0-1.81 0S16.37 4 13 4C9.66 4.01 7.92.58 7.92.58a1 1 0 0 0-1-.57 1 1 0 0 0-.1 0 1 1 0 0 0-.71.57S4.3 4 1 4a1 1 0 1 0 0 2c3.41 0 5.12-2.04 6-3.34a6.87 6.87 0 0 0 6 3.34 6.87 6.87 0 0 0 6-3.34 6.87 6.87 0 0 0 6 3.34 6.87 6.87 0 0 0 6-3.34 6.87 6.87 0 0 0 6 3.34 6.87 6.87 0 0 0 6-3.34 6.9 6.9 0 0 0 6 3.34 1 1 0 0 0 .5-.12 1 1 0 0 0 .5.12c3.41 0 5.12-2.04 6-3.34a6.87 6.87 0 0 0 6 3.34 6.87 6.87 0 0 0 6-3.34 6.87 6.87 0 0 0 6 3.34 6.87 6.87 0 0 0 6-3.34 6.87 6.87 0 0 0 6 3.34 6.87 6.87 0 0 0 6-3.34 6.9 6.9 0 0 0 6 3.34 1 1 0 1 0 0-2c-3.3 0-5.09-3.43-5.09-3.43a1 1 0 0 0-1.81 0S89.38 4 86 4c-3.36 0-5.09-3.43-5.09-3.43a1 1 0 0 0-1.81 0S77.37 4 74 4c-3.35 0-5.09-3.43-5.09-3.43a1 1 0 0 0-1.81 0S65.37 4 62 4c-3.35 0-5.09-3.43-5.09-3.43a1 1 0 0 0-1-.57 1 1 0 0 0-.1 0 1 1 0 0 0-.71.57S53.3 4 50 4a1 1 0 0 0-.5.13z"/><path d="M146.51 20.14a1 1 0 0 0-.5-.13c-3.3 0-5.09-3.43-5.09-3.43a1 1 0 0 0-1.81 0S137.38 20 134 20c-3.36 0-5.09-3.43-5.09-3.43a1 1 0 0 0-1.81 0S125.37 20 122 20c-3.35 0-5.09-3.43-5.09-3.43a1 1 0 0 0-1.81 0S113.37 20 110 20c-3.35 0-5.09-3.43-5.09-3.43a1 1 0 0 0-1-.57 1 1 0 0 0-.1 0 1 1 0 0 0-.71.57S101.3 20 98 20a1 1 0 1 0 0 2c3.41 0 5.12-2.04 6-3.34a6.87 6.87 0 0 0 6 3.34 6.87 6.87 0 0 0 6-3.34 6.87 6.87 0 0 0 6 3.34 6.87 6.87 0 0 0 6-3.34 6.87 6.87 0 0 0 6 3.34 6.87 6.87 0 0 0 6-3.34 6.9 6.9 0 0 0 6 3.34 1 1 0 0 0 .5-.12 1 1 0 0 0 .5.12c3.41 0 5.12-2.04 6-3.34a6.87 6.87 0 0 0 6 3.34 6.87 6.87 0 0 0 6-3.34 6.87 6.87 0 0 0 6 3.34 6.87 6.87 0 0 0 6-3.34 6.87 6.87 0 0 0 6 3.34 6.87 6.87 0 0 0 6-3.34 6.9 6.9 0 0 0 6 3.34 1 1 0 1 0 0-2c-3.3 0-5.09-3.43-5.09-3.43a1 1 0 0 0-1.81 0S186.38 20 183 20c-3.36 0-5.09-3.43-5.09-3.43a1 1 0 0 0-1.81 0S174.37 20 171 20c-3.35 0-5.09-3.43-5.09-3.43a1 1 0 0 0-1.81 0S162.37 20 159 20c-3.35 0-5.09-3.43-5.09-3.43a1 1 0 0 0-1-.57 1 1 0 0 0-.1 0 1 1 0 0 0-.71.57S150.3 20 147 20a1 1 0 0 0-.5.13zm0-16a1 1 0 0 0-.5-.13c-3.3 0-5.09-3.43-5.09-3.43a1 1 0 0 0-1.81 0S137.38 4 134 4c-3.36 0-5.09-3.43-5.09-3.43a1 1 0 0 0-1.81 0S125.37 4 122 4c-3.35 0-5.09-3.43-5.09-3.43a1 1 0 0 0-1.81 0S113.37 4 110 4c-3.35 0-5.09-3.43-5.09-3.43a1 1 0 0 0-1-.57 1 1 0 0 0-.1 0 1 1 0 0 0-.71.57S101.3 4 98 4a1 1 0 1 0 0 2c3.41 0 5.12-2.04 6-3.34a6.87 6.87 0 0 0 6 3.34 6.87 6.87 0 0 0 6-3.34 6.87 6.87 0 0 0 6 3.34 6.87 6.87 0 0 0 6-3.34 6.87 6.87 0 0 0 6 3.34 6.87 6.87 0 0 0 6-3.34 6.9 6.9 0 0 0 6 3.34 1 1 0 0 0 .5-.12 1 1 0 0 0 .5.12c3.41 0 5.12-2.04 6-3.34a6.87 6.87 0 0 0 6 3.34 6.87 6.87 0 0 0 6-3.34 6.87 6.87 0 0 0 6 3.34 6.87 6.87 0 0 0 6-3.34 6.87 6.87 0 0 0 6 3.34 6.87 6.87 0 0 0 6-3.34 6.9 6.9 0 0 0 6 3.34 1 1 0 1 0 0-2c-3.3 0-5.09-3.43-5.09-3.43a1 1 0 0 0-1.81 0S186.38 4 183 4c-3.36 0-5.09-3.43-5.09-3.43a1 1 0 0 0-1.81 0S174.37 4 171 4c-3.35 0-5.09-3.43-5.09-3.43a1 1 0 0 0-1.81 0S162.37 4 159 4c-3.35 0-5.09-3.43-5.09-3.43a1 1 0 0 0-1-.57 1 1 0 0 0-.1 0 1 1 0 0 0-.71.57S150.3 4 147 4a1 1 0 0 0-.5.13z"/></g><g transform="translate(389)"><path d="M49.51 20.14a1 1 0 0 0-.5-.13c-3.3 0-5.09-3.43-5.09-3.43a1 1 0 0 0-1.81 0S40.38 20 37 20c-3.36 0-5.09-3.43-5.09-3.43a1 1 0 0 0-1.81 0S28.37 20 25 20c-3.35 0-5.09-3.43-5.09-3.43a1 1 0 0 0-1.81 0S16.37 20 13 20c-3.35 0-5.09-3.43-5.09-3.43a1 1 0 0 0-1-.57 1 1 0 0 0-.1 0 1 1 0 0 0-.71.57S4.3 20 1 20a1 1 0 1 0 0 2c3.41 0 5.12-2.04 6-3.34a6.87 6.87 0 0 0 6 3.34 6.87 6.87 0 0 0 6-3.34 6.87 6.87 0 0 0 6 3.34 6.87 6.87 0 0 0 6-3.34 6.87 6.87 0 0 0 6 3.34 6.87 6.87 0 0 0 6-3.34 6.9 6.9 0 0 0 6 3.34 1 1 0 0 0 .5-.12 1 1 0 0 0 .5.12c3.41 0 5.12-2.04 6-3.34a6.87 6.87 0 0 0 6 3.34 6.87 6.87 0 0 0 6-3.34 6.87 6.87 0 0 0 6 3.34 6.87 6.87 0 0 0 6-3.34 6.87 6.87 0 0 0 6 3.34 6.87 6.87 0 0 0 6-3.34 6.9 6.9 0 0 0 6 3.34 1 1 0 1 0 0-2c-3.3 0-5.09-3.43-5.09-3.43a1 1 0 0 0-1.81 0S89.38 20 86 20c-3.36 0-5.09-3.43-5.09-3.43a1 1 0 0 0-1.81 0S77.37 20 74 20c-3.35 0-5.09-3.43-5.09-3.43a1 1 0 0 0-1.81 0S65.37 20 62 20c-3.35 0-5.09-3.43-5.09-3.43a1 1 0 0 0-1-.57 1 1 0 0 0-.1 0 1 1 0 0 0-.71.57S53.3 20 50 20a1 1 0 0 0-.5.13zm0-16a1 1 0 0 0-.5-.13c-3.3 0-5.09-3.43-5.09-3.43a1 1 0 0 0-1.81 0S40.38 4 37 4c-3.36 0-5.09-3.43-5.09-3.43a1 1 0 0 0-1.81 0S28.37 4 25 4c-3.35 0-5.09-3.43-5.09-3.43a1 1 0 0 0-1.81 0S16.37 4 13 4C9.66 4.01 7.92.58 7.92.58a1 1 0 0 0-1-.57 1 1 0 0 0-.1 0 1 1 0 0 0-.71.57S4.3 4 1 4a1 1 0 1 0 0 2c3.41 0 5.12-2.04 6-3.34a6.87 6.87 0 0 0 6 3.34 6.87 6.87 0 0 0 6-3.34 6.87 6.87 0 0 0 6 3.34 6.87 6.87 0 0 0 6-3.34 6.87 6.87 0 0 0 6 3.34 6.87 6.87 0 0 0 6-3.34 6.9 6.9 0 0 0 6 3.34 1 1 0 0 0 .5-.12 1 1 0 0 0 .5.12c3.41 0 5.12-2.04 6-3.34a6.87 6.87 0 0 0 6 3.34 6.87 6.87 0 0 0 6-3.34 6.87 6.87 0 0 0 6 3.34 6.87 6.87 0 0 0 6-3.34 6.87 6.87 0 0 0 6 3.34 6.87 6.87 0 0 0 6-3.34 6.9 6.9 0 0 0 6 3.34 1 1 0 1 0 0-2c-3.3 0-5.09-3.43-5.09-3.43a1 1 0 0 0-1.81 0S89.38 4 86 4c-3.36 0-5.09-3.43-5.09-3.43a1 1 0 0 0-1.81 0S77.37 4 74 4c-3.35 0-5.09-3.43-5.09-3.43a1 1 0 0 0-1.81 0S65.37 4 62 4c-3.35 0-5.09-3.43-5.09-3.43a1 1 0 0 0-1-.57 1 1 0 0 0-.1 0 1 1 0 0 0-.71.57S53.3 4 50 4a1 1 0 0 0-.5.13z"/><path d="M146.51 20.14a1 1 0 0 0-.5-.13c-3.3 0-5.09-3.43-5.09-3.43a1 1 0 0 0-1.81 0S137.38 20 134 20c-3.36 0-5.09-3.43-5.09-3.43a1 1 0 0 0-1.81 0S125.37 20 122 20c-3.35 0-5.09-3.43-5.09-3.43a1 1 0 0 0-1.81 0S113.37 20 110 20c-3.35 0-5.09-3.43-5.09-3.43a1 1 0 0 0-1-.57 1 1 0 0 0-.1 0 1 1 0 0 0-.71.57S101.3 20 98 20a1 1 0 1 0 0 2c3.41 0 5.12-2.04 6-3.34a6.87 6.87 0 0 0 6 3.34 6.87 6.87 0 0 0 6-3.34 6.87 6.87 0 0 0 6 3.34 6.87 6.87 0 0 0 6-3.34 6.87 6.87 0 0 0 6 3.34 6.87 6.87 0 0 0 6-3.34 6.9 6.9 0 0 0 6 3.34 1 1 0 0 0 .5-.12 1 1 0 0 0 .5.12c3.41 0 5.12-2.04 6-3.34a6.87 6.87 0 0 0 6 3.34 6.87 6.87 0 0 0 6-3.34 6.87 6.87 0 0 0 6 3.34 6.87 6.87 0 0 0 6-3.34 6.87 6.87 0 0 0 6 3.34 6.87 6.87 0 0 0 6-3.34 6.9 6.9 0 0 0 6 3.34 1 1 0 1 0 0-2c-3.3 0-5.09-3.43-5.09-3.43a1 1 0 0 0-1.81 0S186.38 20 183 20c-3.36 0-5.09-3.43-5.09-3.43a1 1 0 0 0-1.81 0S174.37 20 171 20c-3.35 0-5.09-3.43-5.09-3.43a1 1 0 0 0-1.81 0S162.37 20 159 20c-3.35 0-5.09-3.43-5.09-3.43a1 1 0 0 0-1-.57 1 1 0 0 0-.1 0 1 1 0 0 0-.71.57S150.3 20 147 20a1 1 0 0 0-.5.13zm0-16a1 1 0 0 0-.5-.13c-3.3 0-5.09-3.43-5.09-3.43a1 1 0 0 0-1.81 0S137.38 4 134 4c-3.36 0-5.09-3.43-5.09-3.43a1 1 0 0 0-1.81 0S125.37 4 122 4c-3.35 0-5.09-3.43-5.09-3.43a1 1 0 0 0-1.81 0S113.37 4 110 4c-3.35 0-5.09-3.43-5.09-3.43a1 1 0 0 0-1-.57 1 1 0 0 0-.1 0 1 1 0 0 0-.71.57S101.3 4 98 4a1 1 0 1 0 0 2c3.41 0 5.12-2.04 6-3.34a6.87 6.87 0 0 0 6 3.34 6.87 6.87 0 0 0 6-3.34 6.87 6.87 0 0 0 6 3.34 6.87 6.87 0 0 0 6-3.34 6.87 6.87 0 0 0 6 3.34 6.87 6.87 0 0 0 6-3.34 6.9 6.9 0 0 0 6 3.34 1 1 0 0 0 .5-.12 1 1 0 0 0 .5.12c3.41 0 5.12-2.04 6-3.34a6.87 6.87 0 0 0 6 3.34 6.87 6.87 0 0 0 6-3.34 6.87 6.87 0 0 0 6 3.34 6.87 6.87 0 0 0 6-3.34 6.87 6.87 0 0 0 6 3.34 6.87 6.87 0 0 0 6-3.34 6.9 6.9 0 0 0 6 3.34 1 1 0 1 0 0-2c-3.3 0-5.09-3.43-5.09-3.43a1 1 0 0 0-1.81 0S186.38 4 183 4c-3.36 0-5.09-3.43-5.09-3.43a1 1 0 0 0-1.81 0S174.37 4 171 4c-3.35 0-5.09-3.43-5.09-3.43a1 1 0 0 0-1.81 0S162.37 4 159 4c-3.35 0-5.09-3.43-5.09-3.43a1 1 0 0 0-1-.57 1 1 0 0 0-.1 0 1 1 0 0 0-.71.57S150.3 4 147 4a1 1 0 0 0-.5.13z"/></g><path d="M49.51 20.14a1 1 0 0 0-.5-.13c-3.3 0-5.09-3.43-5.09-3.43a1 1 0 0 0-1.81 0S40.38 20 37 20c-3.36 0-5.09-3.43-5.09-3.43a1 1 0 0 0-1.81 0S28.37 20 25 20c-3.35 0-5.09-3.43-5.09-3.43a1 1 0 0 0-1.81 0S16.37 20 13 20c-3.35 0-5.09-3.43-5.09-3.43a1 1 0 0 0-1-.57 1 1 0 0 0-.1 0 1 1 0 0 0-.71.57S4.3 20 1 20a1 1 0 1 0 0 2c3.41 0 5.12-2.04 6-3.34a6.87 6.87 0 0 0 6 3.34 6.87 6.87 0 0 0 6-3.34 6.87 6.87 0 0 0 6 3.34 6.87 6.87 0 0 0 6-3.34 6.87 6.87 0 0 0 6 3.34 6.87 6.87 0 0 0 6-3.34 6.9 6.9 0 0 0 6 3.34 1 1 0 0 0 .5-.12 1 1 0 0 0 .5.12c3.41 0 5.12-2.04 6-3.34a6.87 6.87 0 0 0 6 3.34 6.87 6.87 0 0 0 6-3.34 6.87 6.87 0 0 0 6 3.34 6.87 6.87 0 0 0 6-3.34 6.87 6.87 0 0 0 6 3.34 6.87 6.87 0 0 0 6-3.34 6.9 6.9 0 0 0 6 3.34 1 1 0 1 0 0-2c-3.3 0-5.09-3.43-5.09-3.43a1 1 0 0 0-1.81 0S89.38 20 86 20c-3.36 0-5.09-3.43-5.09-3.43a1 1 0 0 0-1.81 0S77.37 20 74 20c-3.35 0-5.09-3.43-5.09-3.43a1 1 0 0 0-1.81 0S65.37 20 62 20c-3.35 0-5.09-3.43-5.09-3.43a1 1 0 0 0-1-.57 1 1 0 0 0-.1 0 1 1 0 0 0-.71.57S53.3 20 50 20a1 1 0 0 0-.5.13zm0-16a1 1 0 0 0-.5-.13c-3.3 0-5.09-3.43-5.09-3.43a1 1 0 0 0-1.81 0S40.38 4 37 4c-3.36 0-5.09-3.43-5.09-3.43a1 1 0 0 0-1.81 0S28.37 4 25 4c-3.35 0-5.09-3.43-5.09-3.43a1 1 0 0 0-1.81 0S16.37 4 13 4C9.66 4.01 7.92.58 7.92.58a1 1 0 0 0-1-.57 1 1 0 0 0-.1 0 1 1 0 0 0-.71.57S4.3 4 1 4a1 1 0 1 0 0 2c3.41 0 5.12-2.04 6-3.34a6.87 6.87 0 0 0 6 3.34 6.87 6.87 0 0 0 6-3.34 6.87 6.87 0 0 0 6 3.34 6.87 6.87 0 0 0 6-3.34 6.87 6.87 0 0 0 6 3.34 6.87 6.87 0 0 0 6-3.34 6.9 6.9 0 0 0 6 3.34 1 1 0 0 0 .5-.12 1 1 0 0 0 .5.12c3.41 0 5.12-2.04 6-3.34a6.87 6.87 0 0 0 6 3.34 6.87 6.87 0 0 0 6-3.34 6.87 6.87 0 0 0 6 3.34 6.87 6.87 0 0 0 6-3.34 6.87 6.87 0 0 0 6 3.34 6.87 6.87 0 0 0 6-3.34 6.9 6.9 0 0 0 6 3.34 1 1 0 1 0 0-2c-3.3 0-5.09-3.43-5.09-3.43a1 1 0 0 0-1.81 0S89.38 4 86 4c-3.36 0-5.09-3.43-5.09-3.43a1 1 0 0 0-1.81 0S77.37 4 74 4c-3.35 0-5.09-3.43-5.09-3.43a1 1 0 0 0-1.81 0S65.37 4 62 4c-3.35 0-5.09-3.43-5.09-3.43a1 1 0 0 0-1-.57 1 1 0 0 0-.1 0 1 1 0 0 0-.71.57S53.3 4 50 4a1 1 0 0 0-.5.13z"/><path d="M146.51 20.14a1 1 0 0 0-.5-.13c-3.3 0-5.09-3.43-5.09-3.43a1 1 0 0 0-1.81 0S137.38 20 134 20c-3.36 0-5.09-3.43-5.09-3.43a1 1 0 0 0-1.81 0S125.37 20 122 20c-3.35 0-5.09-3.43-5.09-3.43a1 1 0 0 0-1.81 0S113.37 20 110 20c-3.35 0-5.09-3.43-5.09-3.43a1 1 0 0 0-1-.57 1 1 0 0 0-.1 0 1 1 0 0 0-.71.57S101.3 20 98 20a1 1 0 1 0 0 2c3.41 0 5.12-2.04 6-3.34a6.87 6.87 0 0 0 6 3.34 6.87 6.87 0 0 0 6-3.34 6.87 6.87 0 0 0 6 3.34 6.87 6.87 0 0 0 6-3.34 6.87 6.87 0 0 0 6 3.34 6.87 6.87 0 0 0 6-3.34 6.9 6.9 0 0 0 6 3.34 1 1 0 0 0 .5-.12 1 1 0 0 0 .5.12c3.41 0 5.12-2.04 6-3.34a6.87 6.87 0 0 0 6 3.34 6.87 6.87 0 0 0 6-3.34 6.87 6.87 0 0 0 6 3.34 6.87 6.87 0 0 0 6-3.34 6.87 6.87 0 0 0 6 3.34 6.87 6.87 0 0 0 6-3.34 6.9 6.9 0 0 0 6 3.34 1 1 0 1 0 0-2c-3.3 0-5.09-3.43-5.09-3.43a1 1 0 0 0-1.81 0S186.38 20 183 20c-3.36 0-5.09-3.43-5.09-3.43a1 1 0 0 0-1.81 0S174.37 20 171 20c-3.35 0-5.09-3.43-5.09-3.43a1 1 0 0 0-1.81 0S162.37 20 159 20c-3.35 0-5.09-3.43-5.09-3.43a1 1 0 0 0-1-.57 1 1 0 0 0-.1 0 1 1 0 0 0-.71.57S150.3 20 147 20a1 1 0 0 0-.5.13zm0-16a1 1 0 0 0-.5-.13c-3.3 0-5.09-3.43-5.09-3.43a1 1 0 0 0-1.81 0S137.38 4 134 4c-3.36 0-5.09-3.43-5.09-3.43a1 1 0 0 0-1.81 0S125.37 4 122 4c-3.35 0-5.09-3.43-5.09-3.43a1 1 0 0 0-1.81 0S113.37 4 110 4c-3.35 0-5.09-3.43-5.09-3.43a1 1 0 0 0-1-.57 1 1 0 0 0-.1 0 1 1 0 0 0-.71.57S101.3 4 98 4a1 1 0 1 0 0 2c3.41 0 5.12-2.04 6-3.34a6.87 6.87 0 0 0 6 3.34 6.87 6.87 0 0 0 6-3.34 6.87 6.87 0 0 0 6 3.34 6.87 6.87 0 0 0 6-3.34 6.87 6.87 0 0 0 6 3.34 6.87 6.87 0 0 0 6-3.34 6.9 6.9 0 0 0 6 3.34 1 1 0 0 0 .5-.12 1 1 0 0 0 .5.12c3.41 0 5.12-2.04 6-3.34a6.87 6.87 0 0 0 6 3.34 6.87 6.87 0 0 0 6-3.34 6.87 6.87 0 0 0 6 3.34 6.87 6.87 0 0 0 6-3.34 6.87 6.87 0 0 0 6 3.34 6.87 6.87 0 0 0 6-3.34 6.9 6.9 0 0 0 6 3.34 1 1 0 1 0 0-2c-3.3 0-5.09-3.43-5.09-3.43a1 1 0 0 0-1.81 0S186.38 4 183 4c-3.36 0-5.09-3.43-5.09-3.43a1 1 0 0 0-1.81 0S174.37 4 171 4c-3.35 0-5.09-3.43-5.09-3.43a1 1 0 0 0-1.81 0S162.37 4 159 4c-3.35 0-5.09-3.43-5.09-3.43a1 1 0 0 0-1-.57 1 1 0 0 0-.1 0 1 1 0 0 0-.71.57S150.3 4 147 4a1 1 0 0 0-.5.13z"/></g></g><g fill-rule="nonzero" transform="translate(788)"><rect width="2" height="30" x="18" y="9" fill="#CFD8DC"/><rect width="2" height="11" x="18" y="9" fill="#B0BEC5"/><path fill="#5D4037" d="M33.05 34.63l-2-6 1.9-.63 2 6-1.9.63zM3 34.32v5h3v-5H3zm29 0v5h3v-5h-3z"/><path fill="#E8A13D" d="M37.88 24l-1.9-2.26a2 2 0 0 0-2.81-.3L22.25 30H2a2 2 0 0 0-2 2v2h24l2.18-1 11.7-9z"/><polygon fill="#29A4AC" points="2 12.75 19 1 36 12.75 26 15.75 12 15.75"/><polygon fill="#AFD5D9" points="12 15.75 19 1 26 15.75"/><path fill="#00838F" d="M20 2h-2V1a1 1 0 0 1 2 0v1z"/><polygon fill="#8D6E63" points="26.457 33.424 37.984 24.538 36.706 23 23.18 33.424 0 33.424 0 35.424 38 35.424 38 33.424"/></g></g></svg>